<?xml version="1.0" encoding="UTF-8"?>
<svg id="Layer_1" data-name="Layer 1" xmlns="http://www.w3.org/2000/svg" viewBox="0 0 895.33 420.28">
  <defs>
    <style>
      .cls-1 {
        fill: #f15a29;
      }

      .cls-2 {
        fill: #099347;
      }
    </style>
  </defs>
  <g>
    <path class="cls-1" d="M412.12,323.78c-.89.86-2.05,1.29-3.5,1.29h-4.31c-.17,0-.26-.09-.26-.26v-17.57c0-.17.09-.26.26-.26h3.95c1.57,0,2.79.41,3.68,1.23.89.82,1.33,2.01,1.33,3.58,0,1.86-.66,3.14-1.99,3.85-.09.05-.09.09-.03.13.69.41,1.23.99,1.61,1.73.39.74.58,1.62.58,2.63,0,1.57-.44,2.78-1.33,3.64ZM406.53,309.23v5.48c0,.07.03.1.1.1h1.65c.81,0,1.44-.25,1.88-.74.45-.49.67-1.18.67-2.05s-.22-1.62-.67-2.13c-.45-.51-1.08-.76-1.88-.76h-1.65c-.07,0-.1.03-.1.1ZM410.29,322.1c.46-.53.68-1.29.68-2.27s-.22-1.78-.67-2.34c-.45-.56-1.07-.84-1.86-.84h-1.81c-.07,0-.1.04-.1.1v6.04c0,.07.03.1.1.1h1.78c.79,0,1.42-.27,1.87-.8Z"/>
    <path class="cls-1" d="M423.76,319.52h-5.84c-.07,0-.1.03-.1.1v1.4c0,.62.17,1.13.52,1.52.35.4.79.59,1.34.59.48,0,.89-.15,1.21-.44.33-.29.53-.67.62-1.14.05-.14.15-.21.28-.21l1.91.1c.09,0,.15.03.19.08s.06.11.04.18c-.12,1.12-.55,1.99-1.28,2.62-.73.63-1.73.94-2.98.94-1.33,0-2.38-.37-3.16-1.11-.78-.74-1.18-1.73-1.18-2.97v-5.37c0-1.22.39-2.21,1.18-2.97.78-.76,1.84-1.14,3.16-1.14s2.4.38,3.18,1.14,1.16,1.75,1.16,2.97v3.44c0,.17-.09.26-.26.26ZM418.33,314.45c-.34.4-.52.9-.52,1.52v1.37c0,.07.03.1.1.1h3.54c.07,0,.1-.03.1-.1v-1.37c0-.62-.17-1.13-.52-1.52-.34-.4-.8-.59-1.37-.59s-1,.2-1.34.59Z"/>
    <path class="cls-1" d="M425.75,330.13c-.04-.05-.05-.11-.05-.18v-1.52c0-.17.09-.26.26-.26.55-.02.98-.1,1.3-.26s.58-.45.77-.88c.2-.43.37-1.06.5-1.89l-.03-.13-3.31-12.81-.03-.08c0-.14.09-.21.26-.21h2.12c.17,0,.27.08.28.23l1.89,9.33c.02.05.03.08.05.08s.03-.03.05-.08l1.86-9.33c.03-.16.13-.23.28-.23l2.14.03c.09,0,.15.03.19.08s.05.12.01.21l-3.54,13.74c-.33,1.19-.65,2.07-.98,2.65s-.78.99-1.36,1.23-1.4.36-2.47.36h-.13s-.07-.03-.1-.08Z"/>
    <path class="cls-1" d="M436.79,324.15c-.78-.75-1.18-1.74-1.18-2.98v-5.35c0-1.22.4-2.21,1.19-2.97s1.85-1.14,3.18-1.14,2.41.38,3.2,1.14c.79.76,1.19,1.75,1.19,2.97v5.35c0,1.24-.4,2.24-1.19,2.98-.79.75-1.86,1.12-3.2,1.12s-2.41-.37-3.19-1.12ZM441.35,322.53c.36-.39.54-.9.54-1.54v-5.01c0-.62-.18-1.13-.54-1.52-.36-.4-.82-.59-1.37-.59s-1,.2-1.36.59c-.35.4-.53.9-.53,1.52v5.01c0,.64.18,1.15.53,1.54s.81.58,1.36.58,1.01-.19,1.37-.58Z"/>
    <path class="cls-1" d="M454.54,312.84c.58.73.87,1.77.87,3.11v8.86c0,.17-.09.26-.26.26h-1.96c-.17,0-.26-.09-.26-.26v-8.65c0-.72-.15-1.28-.46-1.68-.31-.4-.74-.59-1.29-.59s-1.01.19-1.33.58-.5.93-.53,1.64c0,.1,0,.15-.03.15v8.55c0,.17-.09.26-.26.26h-1.96c-.17,0-.26-.09-.26-.26v-12.63c0-.17.09-.26.26-.26h1.96c.17,0,.26.09.26.26v.7s.02.06.05.06.07-.01.1-.06c.62-.76,1.49-1.14,2.61-1.14s1.92.37,2.49,1.1Z"/>
    <path class="cls-1" d="M464.16,306.99h1.96c.17,0,.26.09.26.26v17.57c0,.17-.09.26-.26.26h-1.96c-.17,0-.26-.09-.26-.26v-.41s-.01-.06-.04-.08c-.03-.02-.06,0-.09.03-.33.31-.7.54-1.11.7-.41.16-.83.23-1.24.23-1.14,0-2.04-.37-2.7-1.12-.66-.75-.99-1.73-.99-2.96v-5.37c0-1.27.33-2.28.99-3.01s1.56-1.1,2.7-1.1c.41,0,.83.08,1.24.23.41.16.78.39,1.11.7.03.04.06.04.09.03.03-.02.04-.04.04-.08v-5.35c0-.17.09-.26.26-.26ZM463.3,322.65c.34-.32.54-.74.61-1.25v-5.81c-.07-.52-.27-.93-.61-1.25-.34-.32-.75-.48-1.23-.48-.55,0-1,.2-1.36.59-.35.4-.53.9-.53,1.52v5.04c0,.62.18,1.13.53,1.52.35.4.8.59,1.36.59.48,0,.89-.16,1.23-.48Z"/>
    <path class="cls-1" d="M482.59,323.78c-.89.86-2.05,1.29-3.5,1.29h-4.31c-.17,0-.26-.09-.26-.26v-17.57c0-.17.09-.26.26-.26h3.95c1.57,0,2.79.41,3.68,1.23.89.82,1.33,2.01,1.33,3.58,0,1.86-.66,3.14-1.99,3.85-.09.05-.09.09-.03.13.69.41,1.23.99,1.61,1.73.39.74.58,1.62.58,2.63,0,1.57-.44,2.78-1.33,3.64ZM477,309.23v5.48c0,.07.03.1.1.1h1.65c.81,0,1.44-.25,1.88-.74.45-.49.67-1.18.67-2.05s-.22-1.62-.67-2.13c-.45-.51-1.08-.76-1.88-.76h-1.65c-.07,0-.1.03-.1.1ZM480.76,322.1c.46-.53.68-1.29.68-2.27s-.22-1.78-.67-2.34c-.45-.56-1.07-.84-1.86-.84h-1.81c-.07,0-.1.04-.1.1v6.04c0,.07.03.1.1.1h1.78c.79,0,1.42-.27,1.87-.8Z"/>
    <path class="cls-1" d="M486.98,324.15c-.78-.75-1.18-1.74-1.18-2.98v-5.35c0-1.22.4-2.21,1.19-2.97.79-.76,1.85-1.14,3.18-1.14s2.41.38,3.2,1.14c.79.76,1.19,1.75,1.19,2.97v5.35c0,1.24-.4,2.24-1.19,2.98-.79.75-1.86,1.12-3.2,1.12s-2.41-.37-3.19-1.12ZM491.54,322.53c.36-.39.54-.9.54-1.54v-5.01c0-.62-.18-1.13-.54-1.52-.36-.4-.82-.59-1.37-.59s-1,.2-1.36.59c-.35.4-.53.9-.53,1.52v5.01c0,.64.18,1.15.53,1.54s.81.58,1.36.58,1.01-.19,1.37-.58Z"/>
    <path class="cls-1" d="M503.22,311.92h1.96c.17,0,.26.09.26.26v12.63c0,.17-.09.26-.26.26h-1.96c-.17,0-.26-.09-.26-.26v-.75c0-.05-.01-.08-.04-.08s-.06.02-.09.05c-.52.81-1.34,1.21-2.48,1.21-1.03,0-1.87-.31-2.51-.94-.64-.63-.96-1.59-.96-2.88v-9.25c0-.17.09-.26.26-.26h1.96c.17,0,.26.09.26.26v8.71c0,1.48.59,2.22,1.76,2.22.59,0,1.04-.21,1.36-.63.32-.42.48-1,.48-1.74v-8.55c0-.17.09-.26.26-.26Z"/>
    <path class="cls-1" d="M515.89,312.84c.58.73.87,1.77.87,3.11v8.86c0,.17-.09.26-.26.26h-1.96c-.17,0-.26-.09-.26-.26v-8.65c0-.72-.15-1.28-.46-1.68-.31-.4-.74-.59-1.29-.59s-1.01.19-1.33.58-.5.93-.53,1.64c0,.1,0,.15-.03.15v8.55c0,.17-.09.26-.26.26h-1.96c-.17,0-.26-.09-.26-.26v-12.63c0-.17.09-.26.26-.26h1.96c.17,0,.26.09.26.26v.7s.02.06.05.06.07-.01.1-.06c.62-.76,1.49-1.14,2.61-1.14s1.92.37,2.49,1.1Z"/>
    <path class="cls-1" d="M525.51,306.99h1.96c.17,0,.26.09.26.26v17.57c0,.17-.09.26-.26.26h-1.96c-.17,0-.26-.09-.26-.26v-.41s-.01-.06-.04-.08c-.03-.02-.06,0-.09.03-.33.31-.7.54-1.11.7-.41.16-.83.23-1.24.23-1.14,0-2.04-.37-2.7-1.12-.66-.75-.99-1.73-.99-2.96v-5.37c0-1.27.33-2.28.99-3.01s1.56-1.1,2.7-1.1c.41,0,.83.08,1.24.23.41.16.78.39,1.11.7.03.04.06.04.09.03.03-.02.04-.04.04-.08v-5.35c0-.17.09-.26.26-.26ZM524.65,322.65c.34-.32.54-.74.61-1.25v-5.81c-.07-.52-.27-.93-.61-1.25-.34-.32-.75-.48-1.23-.48-.55,0-1,.2-1.36.59-.35.4-.53.9-.53,1.52v5.04c0,.62.18,1.13.53,1.52.35.4.8.59,1.36.59.48,0,.89-.16,1.23-.48Z"/>
    <path class="cls-1" d="M537.77,312.9c.8.79,1.2,1.83,1.2,3.13v8.78c0,.17-.09.26-.26.26h-1.96c-.17,0-.26-.09-.26-.26v-.57s-.01-.06-.04-.08c-.03-.02-.06,0-.09.03-.6.72-1.49,1.08-2.66,1.08-.98,0-1.85-.28-2.6-.84s-1.12-1.55-1.12-2.98.45-2.6,1.36-3.29,2.09-1.05,3.55-1.05h1.5c.07,0,.1-.03.1-.1v-.75c0-.72-.17-1.3-.52-1.74-.35-.44-.79-.66-1.34-.66-.43,0-.79.15-1.08.44s-.47.67-.52,1.14c0,.17-.09.26-.26.26h-2.09c-.17,0-.26-.09-.26-.26.09-1.1.52-2,1.32-2.69.79-.69,1.77-1.03,2.95-1.03,1.26,0,2.29.4,3.09,1.19ZM535.82,322.54c.45-.38.67-.91.67-1.6v-1.76c0-.07-.04-.1-.1-.1h-1.58c-.69,0-1.24.18-1.65.55-.41.37-.62.91-.62,1.61,0,.62.15,1.08.47,1.4s.72.46,1.24.46c.6,0,1.13-.19,1.58-.57Z"/>
    <path class="cls-1" d="M547.52,312.08c.12.07.16.18.13.34l-.39,1.96c-.02.15-.12.21-.31.15-.22-.09-.47-.13-.72-.13-.1,0-.26.02-.47.05-.53.05-.98.35-1.33.88-.35.53-.53,1.18-.53,1.94v7.54c0,.17-.09.26-.26.26h-1.96c-.17,0-.26-.09-.26-.26v-12.63c0-.17.09-.26.26-.26h1.96c.17,0,.26.09.26.26v1.5c0,.05.01.08.04.09.03,0,.05-.01.06-.06.5-1.27,1.3-1.91,2.4-1.91.43,0,.8.09,1.11.28Z"/>
    <path class="cls-1" d="M549.46,309.39c-.31-.31-.46-.71-.46-1.19s.15-.88.46-1.19.71-.47,1.19-.47.9.15,1.2.45c.3.3.45.7.45,1.2s-.15.88-.46,1.19c-.31.31-.71.47-1.19.47s-.88-.16-1.19-.47ZM549.43,324.81v-12.63c0-.17.09-.26.26-.26h1.96c.17,0,.26.09.26.26v12.63c0,.17-.09.26-.26.26h-1.96c-.17,0-.26-.09-.26-.26Z"/>
    <path class="cls-1" d="M562.94,319.52h-5.84c-.07,0-.1.03-.1.1v1.4c0,.62.17,1.13.52,1.52.35.4.79.59,1.34.59.48,0,.89-.15,1.21-.44.33-.29.53-.67.62-1.14.05-.14.15-.21.28-.21l1.91.1c.09,0,.15.03.19.08s.06.11.04.18c-.12,1.12-.55,1.99-1.28,2.62-.73.63-1.73.94-2.98.94-1.33,0-2.38-.37-3.16-1.11-.78-.74-1.18-1.73-1.18-2.97v-5.37c0-1.22.39-2.21,1.18-2.97.78-.76,1.84-1.14,3.16-1.14s2.4.38,3.18,1.14,1.16,1.75,1.16,2.97v3.44c0,.17-.09.26-.26.26ZM557.52,314.45c-.34.4-.52.9-.52,1.52v1.37c0,.07.03.1.1.1h3.54c.07,0,.1-.03.1-.1v-1.37c0-.62-.17-1.13-.52-1.52-.34-.4-.8-.59-1.37-.59s-1,.2-1.34.59Z"/>
    <path class="cls-1" d="M566.16,324.28c-.75-.63-1.12-1.48-1.12-2.54v-.23c0-.17.09-.26.26-.26h1.83c.17,0,.26.09.26.26v.18c0,.47.18.86.54,1.18.36.32.81.48,1.34.48s.93-.16,1.25-.47.48-.71.48-1.19c0-.38-.11-.7-.34-.96-.22-.26-.49-.46-.79-.61-.3-.15-.76-.35-1.38-.61-.67-.29-1.23-.58-1.67-.85s-.83-.67-1.18-1.19c-.34-.52-.52-1.17-.52-1.96,0-1.17.37-2.08,1.1-2.74.73-.65,1.72-.98,2.96-.98s2.28.34,3.01,1.01c.73.67,1.1,1.58,1.1,2.74v.08c0,.17-.09.26-.26.26h-1.78c-.17,0-.26-.09-.26-.26v-.18c0-.47-.16-.86-.49-1.19s-.75-.49-1.27-.49-.96.16-1.27.49c-.31.33-.46.72-.46,1.19,0,.36.1.66.31.9s.46.43.75.58.76.36,1.4.63c.71.31,1.29.61,1.76.89.47.28.87.68,1.23,1.2s.53,1.16.53,1.94c0,1.12-.38,2.01-1.15,2.66-.77.65-1.8.98-3.11.98s-2.31-.31-3.06-.94Z"/>
    <path class="cls-1" d="M575.99,315.9c-.31-.31-.47-.71-.47-1.19s.16-.88.47-1.19.71-.47,1.19-.47.88.16,1.19.47c.31.31.47.71.47,1.19s-.15.88-.47,1.19c-.31.31-.71.47-1.19.47s-.88-.16-1.19-.47ZM575.99,324.5c-.31-.31-.47-.71-.47-1.19s.16-.88.47-1.19c.31-.31.71-.47,1.19-.47s.88.15,1.19.47c.31.31.47.71.47,1.19s-.15.88-.47,1.19c-.31.31-.71.47-1.19.47s-.88-.16-1.19-.47Z"/>
    <path class="cls-1" d="M586.94,324.81v-17.57c0-.17.09-.26.26-.26h1.96c.17,0,.26.09.26.26v17.57c0,.17-.09.26-.26.26h-1.96c-.17,0-.26-.09-.26-.26Z"/>
    <path class="cls-1" d="M600.1,312.84c.58.73.87,1.77.87,3.11v8.86c0,.17-.09.26-.26.26h-1.96c-.17,0-.26-.09-.26-.26v-8.65c0-.72-.15-1.28-.46-1.68-.31-.4-.74-.59-1.29-.59s-1.01.19-1.33.58-.5.93-.53,1.64c0,.1,0,.15-.03.15v8.55c0,.17-.09.26-.26.26h-1.96c-.17,0-.26-.09-.26-.26v-12.63c0-.17.09-.26.26-.26h1.96c.17,0,.26.09.26.26v.7s.02.06.05.06.07-.01.1-.06c.62-.76,1.49-1.14,2.61-1.14s1.92.37,2.49,1.1Z"/>
    <path class="cls-1" d="M608.4,313.73h-1.81c-.07,0-.1.03-.1.1v7.26c0,.69.12,1.17.36,1.43.24.27.62.39,1.14.38h.23c.17,0,.26.09.26.26v1.65c0,.17-.09.26-.26.26h-.8c-1.1,0-1.93-.21-2.49-.65-.56-.43-.84-1.25-.84-2.45v-8.14c0-.07-.03-.1-.1-.1h-1.01c-.17,0-.26-.09-.26-.26v-1.29c0-.17.09-.26.26-.26h1.01c.07,0,.1-.03.1-.1v-2.92c0-.17.09-.26.26-.26h1.89c.17,0,.26.09.26.26v2.92c0,.07.03.1.1.1h1.81c.17,0,.26.09.26.26v1.29c0,.17-.09.26-.26.26Z"/>
    <path class="cls-1" d="M618.81,319.52h-5.84c-.07,0-.1.03-.1.1v1.4c0,.62.17,1.13.52,1.52.35.4.79.59,1.34.59.48,0,.89-.15,1.21-.44.33-.29.53-.67.62-1.14.05-.14.15-.21.28-.21l1.91.1c.09,0,.15.03.19.08s.06.11.04.18c-.12,1.12-.55,1.99-1.28,2.62-.73.63-1.73.94-2.98.94-1.33,0-2.38-.37-3.16-1.11-.78-.74-1.18-1.73-1.18-2.97v-5.37c0-1.22.39-2.21,1.18-2.97.78-.76,1.84-1.14,3.16-1.14s2.4.38,3.18,1.14,1.16,1.75,1.16,2.97v3.44c0,.17-.09.26-.26.26ZM613.39,314.45c-.34.4-.52.9-.52,1.52v1.37c0,.07.03.1.1.1h3.54c.07,0,.1-.03.1-.1v-1.37c0-.62-.17-1.13-.52-1.52-.34-.4-.8-.59-1.37-.59s-1,.2-1.34.59Z"/>
    <path class="cls-1" d="M627.6,311.92h1.96c.17,0,.26.09.26.26v12.5c0,1.81-.41,3.21-1.24,4.2-.83.99-2.25,1.49-4.26,1.49l-.7-.03c-.17-.02-.26-.11-.26-.28v-1.65c0-.17.09-.26.28-.26,1.41.05,2.38-.23,2.91-.84.53-.61.79-1.56.79-2.85v-.54s-.01-.06-.04-.06c-.03,0-.06,0-.09.04-.59.79-1.42,1.19-2.51,1.19s-2.01-.37-2.62-1.1c-.61-.73-.92-1.73-.92-2.98v-5.17c0-1.27.31-2.28.93-3.01.62-.73,1.49-1.1,2.61-1.1s1.95.4,2.51,1.19c.03.04.06.04.09.03.03-.02.04-.04.04-.08v-.67c0-.17.09-.26.26-.26ZM626.83,322.34c.34-.39.5-.89.5-1.51v-4.86c0-.62-.17-1.13-.5-1.52-.34-.4-.78-.59-1.33-.59s-1,.2-1.34.59c-.34.4-.52.9-.52,1.52v4.86c0,.62.17,1.12.52,1.51.35.39.79.58,1.34.58s.99-.19,1.33-.58Z"/>
    <path class="cls-1" d="M638.42,312.08c.12.07.16.18.13.34l-.39,1.96c-.02.15-.12.21-.31.15-.22-.09-.47-.13-.72-.13-.1,0-.26.02-.47.05-.53.05-.98.35-1.33.88-.35.53-.53,1.18-.53,1.94v7.54c0,.17-.09.26-.26.26h-1.96c-.17,0-.26-.09-.26-.26v-12.63c0-.17.09-.26.26-.26h1.96c.17,0,.26.09.26.26v1.5c0,.05.01.08.04.09.03,0,.05-.01.06-.06.5-1.27,1.3-1.91,2.4-1.91.43,0,.8.09,1.11.28Z"/>
    <path class="cls-1" d="M647.42,312.9c.8.79,1.2,1.83,1.2,3.13v8.78c0,.17-.09.26-.26.26h-1.96c-.17,0-.26-.09-.26-.26v-.57s-.01-.06-.04-.08c-.03-.02-.06,0-.09.03-.6.72-1.49,1.08-2.66,1.08-.98,0-1.85-.28-2.6-.84s-1.12-1.55-1.12-2.98.45-2.6,1.36-3.29,2.09-1.05,3.55-1.05h1.5c.07,0,.1-.03.1-.1v-.75c0-.72-.17-1.3-.52-1.74-.35-.44-.79-.66-1.34-.66-.43,0-.79.15-1.08.44s-.47.67-.52,1.14c0,.17-.09.26-.26.26h-2.09c-.17,0-.26-.09-.26-.26.09-1.1.52-2,1.32-2.69s1.77-1.03,2.95-1.03c1.26,0,2.29.4,3.09,1.19ZM645.47,322.54c.45-.38.67-.91.67-1.6v-1.76c0-.07-.04-.1-.1-.1h-1.58c-.69,0-1.24.18-1.65.55-.41.37-.62.91-.62,1.61,0,.62.15,1.08.47,1.4s.72.46,1.24.46c.6,0,1.13-.19,1.58-.57Z"/>
    <path class="cls-1" d="M655.96,313.73h-1.81c-.07,0-.1.03-.1.1v7.26c0,.69.12,1.17.36,1.43.24.27.62.39,1.14.38h.23c.17,0,.26.09.26.26v1.65c0,.17-.09.26-.26.26h-.8c-1.1,0-1.93-.21-2.49-.65-.56-.43-.84-1.25-.84-2.45v-8.14c0-.07-.03-.1-.1-.1h-1.01c-.17,0-.26-.09-.26-.26v-1.29c0-.17.09-.26.26-.26h1.01c.07,0,.1-.03.1-.1v-2.92c0-.17.09-.26.26-.26h1.89c.17,0,.26.09.26.26v2.92c0,.07.03.1.1.1h1.81c.17,0,.26.09.26.26v1.29c0,.17-.09.26-.26.26Z"/>
    <path class="cls-1" d="M658.36,309.39c-.31-.31-.46-.71-.46-1.19s.15-.88.46-1.19.71-.47,1.19-.47.9.15,1.2.45c.3.3.45.7.45,1.2s-.15.88-.46,1.19c-.31.31-.71.47-1.19.47s-.88-.16-1.19-.47ZM658.34,324.81v-12.63c0-.17.09-.26.26-.26h1.96c.17,0,.26.09.26.26v12.63c0,.17-.09.26-.26.26h-1.96c-.17,0-.26-.09-.26-.26Z"/>
    <path class="cls-1" d="M671.39,312.84c.58.73.87,1.77.87,3.11v8.86c0,.17-.09.26-.26.26h-1.96c-.17,0-.26-.09-.26-.26v-8.65c0-.72-.15-1.28-.46-1.68-.31-.4-.74-.59-1.29-.59s-1.01.19-1.33.58-.5.93-.53,1.64c0,.1,0,.15-.03.15v8.55c0,.17-.09.26-.26.26h-1.96c-.17,0-.26-.09-.26-.26v-12.63c0-.17.09-.26.26-.26h1.96c.17,0,.26.09.26.26v.7s.02.06.05.06.07-.01.1-.06c.62-.76,1.49-1.14,2.61-1.14s1.92.37,2.49,1.1Z"/>
    <path class="cls-1" d="M681.02,311.92h1.96c.17,0,.26.09.26.26v12.5c0,1.81-.41,3.21-1.24,4.2-.83.99-2.25,1.49-4.26,1.49l-.7-.03c-.17-.02-.26-.11-.26-.28v-1.65c0-.17.09-.26.28-.26,1.41.05,2.38-.23,2.91-.84.53-.61.79-1.56.79-2.85v-.54s-.01-.06-.04-.06c-.03,0-.06,0-.09.04-.59.79-1.42,1.19-2.51,1.19s-2.01-.37-2.62-1.1c-.61-.73-.92-1.73-.92-2.98v-5.17c0-1.27.31-2.28.93-3.01.62-.73,1.49-1.1,2.61-1.1s1.95.4,2.51,1.19c.03.04.06.04.09.03.03-.02.04-.04.04-.08v-.67c0-.17.09-.26.26-.26ZM680.25,322.34c.34-.39.5-.89.5-1.51v-4.86c0-.62-.17-1.13-.5-1.52-.34-.4-.78-.59-1.33-.59s-1,.2-1.34.59c-.34.4-.52.9-.52,1.52v4.86c0,.62.17,1.12.52,1.51.35.39.79.58,1.34.58s.99-.19,1.33-.58Z"/>
    <path class="cls-1" d="M699.24,308.4c.82.96,1.23,2.21,1.23,3.76s-.4,2.74-1.19,3.67c-.79.93-1.83,1.4-3.13,1.4h-2.43c-.07,0-.1.03-.1.1v7.49c0,.17-.09.26-.26.26h-1.96c-.17,0-.26-.09-.26-.26v-17.59c0-.17.09-.26.26-.26h4.62c1.33,0,2.4.48,3.22,1.43ZM697.34,314.41c.43-.54.65-1.28.65-2.21s-.22-1.7-.65-2.26c-.43-.56-1-.84-1.71-.84h-1.91c-.07,0-.1.04-.1.1v5.92c0,.07.03.1.1.1h1.91c.71,0,1.27-.27,1.71-.81Z"/>
    <path class="cls-1" d="M708.66,312.08c.12.07.16.18.13.34l-.39,1.96c-.02.15-.12.21-.31.15-.22-.09-.47-.13-.72-.13-.1,0-.26.02-.47.05-.53.05-.98.35-1.33.88-.35.53-.53,1.18-.53,1.94v7.54c0,.17-.09.26-.26.26h-1.96c-.17,0-.26-.09-.26-.26v-12.63c0-.17.09-.26.26-.26h1.96c.17,0,.26.09.26.26v1.5c0,.05.01.08.04.09.03,0,.05-.01.06-.06.5-1.27,1.3-1.91,2.4-1.91.43,0,.8.09,1.11.28Z"/>
    <path class="cls-1" d="M710.59,309.39c-.31-.31-.46-.71-.46-1.19s.15-.88.46-1.19.71-.47,1.19-.47.9.15,1.2.45c.3.3.45.7.45,1.2s-.15.88-.46,1.19c-.31.31-.71.47-1.19.47s-.88-.16-1.19-.47ZM710.57,324.81v-12.63c0-.17.09-.26.26-.26h1.96c.17,0,.26.09.26.26v12.63c0,.17-.09.26-.26.26h-1.96c-.17,0-.26-.09-.26-.26Z"/>
    <path class="cls-1" d="M729.41,312.89c.58.77.86,1.84.86,3.22v8.71c0,.17-.09.26-.26.26h-1.94c-.17,0-.26-.09-.26-.26v-8.52c0-.76-.15-1.35-.46-1.77-.31-.42-.72-.63-1.24-.63-.55,0-.99.21-1.32.63-.33.42-.49,1-.49,1.74v8.55c0,.17-.09.26-.26.26h-1.94c-.17,0-.26-.09-.26-.26v-8.52c0-.76-.16-1.35-.47-1.77-.31-.42-.72-.63-1.24-.63-.55,0-.99.21-1.32.63-.33.42-.49,1-.49,1.74v8.55c0,.17-.09.26-.26.26h-1.94c-.17,0-.26-.09-.26-.26v-12.63c0-.17.09-.26.26-.26h1.94c.17,0,.26.09.26.26v.65s.01.06.04.08c.03.02.06,0,.09-.03.34-.38.74-.66,1.19-.85.45-.19.9-.28,1.34-.28,1.31,0,2.25.58,2.82,1.73.02.03.04.05.08.04.03,0,.06-.05.08-.12.34-.59.78-1.01,1.32-1.27.53-.26,1.08-.39,1.65-.39,1.07,0,1.89.38,2.47,1.15Z"/>
    <path class="cls-1" d="M740.18,312.9c.8.79,1.2,1.83,1.2,3.13v8.78c0,.17-.09.26-.26.26h-1.96c-.17,0-.26-.09-.26-.26v-.57s-.01-.06-.04-.08c-.03-.02-.06,0-.09.03-.6.72-1.49,1.08-2.66,1.08-.98,0-1.85-.28-2.6-.84s-1.12-1.55-1.12-2.98.45-2.6,1.36-3.29,2.09-1.05,3.55-1.05h1.5c.07,0,.1-.03.1-.1v-.75c0-.72-.17-1.3-.52-1.74-.35-.44-.79-.66-1.34-.66-.43,0-.79.15-1.08.44s-.47.67-.52,1.14c0,.17-.09.26-.26.26h-2.09c-.17,0-.26-.09-.26-.26.09-1.1.52-2,1.32-2.69s1.77-1.03,2.95-1.03c1.26,0,2.29.4,3.09,1.19ZM738.23,322.54c.45-.38.67-.91.67-1.6v-1.76c0-.07-.04-.1-.1-.1h-1.58c-.69,0-1.24.18-1.65.55-.41.37-.62.91-.62,1.61,0,.62.15,1.08.47,1.4s.72.46,1.24.46c.6,0,1.13-.19,1.58-.57Z"/>
    <path class="cls-1" d="M748.72,313.73h-1.81c-.07,0-.1.03-.1.1v7.26c0,.69.12,1.17.36,1.43.24.27.62.39,1.14.38h.23c.17,0,.26.09.26.26v1.65c0,.17-.09.26-.26.26h-.8c-1.1,0-1.93-.21-2.49-.65-.56-.43-.84-1.25-.84-2.45v-8.14c0-.07-.03-.1-.1-.1h-1.01c-.17,0-.26-.09-.26-.26v-1.29c0-.17.09-.26.26-.26h1.01c.07,0,.1-.03.1-.1v-2.92c0-.17.09-.26.26-.26h1.89c.17,0,.26.09.26.26v2.92c0,.07.03.1.1.1h1.81c.17,0,.26.09.26.26v1.29c0,.17-.09.26-.26.26Z"/>
    <path class="cls-1" d="M759.13,319.52h-5.84c-.07,0-.1.03-.1.1v1.4c0,.62.17,1.13.52,1.52.35.4.79.59,1.34.59.48,0,.89-.15,1.21-.44.33-.29.53-.67.62-1.14.05-.14.15-.21.28-.21l1.91.1c.09,0,.15.03.19.08s.06.11.04.18c-.12,1.12-.55,1.99-1.28,2.62-.73.63-1.73.94-2.98.94-1.33,0-2.38-.37-3.16-1.11-.78-.74-1.18-1.73-1.18-2.97v-5.37c0-1.22.39-2.21,1.18-2.97.78-.76,1.84-1.14,3.16-1.14s2.4.38,3.18,1.14,1.16,1.75,1.16,2.97v3.44c0,.17-.09.26-.26.26ZM753.71,314.45c-.34.4-.52.9-.52,1.52v1.37c0,.07.03.1.1.1h3.54c.07,0,.1-.03.1-.1v-1.37c0-.62-.17-1.13-.52-1.52-.34-.4-.8-.59-1.37-.59s-1,.2-1.34.59Z"/>
    <path class="cls-1" d="M774.01,324.86l-2.38-7.7c-.02-.05-.05-.08-.1-.08h-1.81c-.07,0-.1.03-.1.1v7.62c0,.17-.09.26-.26.26h-1.96c-.17,0-.26-.09-.26-.26v-17.57c0-.17.09-.26.26-.26h4.62c.88,0,1.65.22,2.32.65.67.43,1.19,1.04,1.56,1.82s.56,1.68.56,2.67c0,1.09-.22,2.03-.67,2.83-.45.8-1.06,1.38-1.83,1.74-.05.05-.07.1-.05.15l2.64,7.93.03.1c0,.12-.08.18-.23.18h-2.02c-.16,0-.26-.07-.31-.21ZM769.62,309.23v5.79c0,.07.03.1.1.1h1.91c.71,0,1.27-.27,1.7-.81.43-.54.65-1.26.65-2.16s-.21-1.67-.65-2.21c-.43-.54-1-.81-1.7-.81h-1.91c-.07,0-.1.03-.1.1Z"/>
    <path class="cls-1" d="M786.77,319.52h-5.84c-.07,0-.1.03-.1.1v1.4c0,.62.17,1.13.52,1.52.35.4.79.59,1.34.59.48,0,.89-.15,1.21-.44.33-.29.53-.67.62-1.14.05-.14.15-.21.28-.21l1.91.1c.09,0,.15.03.19.08s.06.11.04.18c-.12,1.12-.55,1.99-1.28,2.62-.73.63-1.73.94-2.98.94-1.33,0-2.38-.37-3.16-1.11-.78-.74-1.18-1.73-1.18-2.97v-5.37c0-1.22.39-2.21,1.18-2.97.78-.76,1.84-1.14,3.16-1.14s2.4.38,3.18,1.14,1.16,1.75,1.16,2.97v3.44c0,.17-.09.26-.26.26ZM781.35,314.45c-.34.4-.52.9-.52,1.52v1.37c0,.07.03.1.1.1h3.54c.07,0,.1-.03.1-.1v-1.37c0-.62-.17-1.13-.52-1.52-.34-.4-.8-.59-1.37-.59s-1,.2-1.34.59Z"/>
    <path class="cls-1" d="M789.99,324.28c-.75-.63-1.12-1.48-1.12-2.54v-.23c0-.17.09-.26.26-.26h1.83c.17,0,.26.09.26.26v.18c0,.47.18.86.54,1.18.36.32.81.48,1.34.48s.93-.16,1.25-.47.48-.71.48-1.19c0-.38-.11-.7-.34-.96-.22-.26-.49-.46-.79-.61-.3-.15-.76-.35-1.38-.61-.67-.29-1.23-.58-1.67-.85s-.83-.67-1.18-1.19c-.34-.52-.52-1.17-.52-1.96,0-1.17.37-2.08,1.1-2.74.73-.65,1.72-.98,2.96-.98s2.28.34,3.01,1.01c.73.67,1.1,1.58,1.1,2.74v.08c0,.17-.09.26-.26.26h-1.78c-.17,0-.26-.09-.26-.26v-.18c0-.47-.16-.86-.49-1.19s-.75-.49-1.27-.49-.96.16-1.27.49c-.31.33-.46.72-.46,1.19,0,.36.1.66.31.9s.46.43.75.58.76.36,1.4.63c.71.31,1.29.61,1.76.89.47.28.87.68,1.23,1.2s.53,1.16.53,1.94c0,1.12-.38,2.01-1.15,2.66-.77.65-1.8.98-3.11.98s-2.31-.31-3.06-.94Z"/>
    <path class="cls-1" d="M807.49,319.52h-5.84c-.07,0-.1.03-.1.1v1.4c0,.62.17,1.13.52,1.52.35.4.79.59,1.34.59.48,0,.89-.15,1.21-.44.33-.29.53-.67.62-1.14.05-.14.15-.21.28-.21l1.91.1c.09,0,.15.03.19.08s.06.11.04.18c-.12,1.12-.55,1.99-1.28,2.62-.73.63-1.73.94-2.98.94-1.33,0-2.38-.37-3.16-1.11-.78-.74-1.18-1.73-1.18-2.97v-5.37c0-1.22.39-2.21,1.18-2.97.78-.76,1.84-1.14,3.16-1.14s2.4.38,3.18,1.14,1.16,1.75,1.16,2.97v3.44c0,.17-.09.26-.26.26ZM802.06,314.45c-.34.4-.52.9-.52,1.52v1.37c0,.07.03.1.1.1h3.54c.07,0,.1-.03.1-.1v-1.37c0-.62-.17-1.13-.52-1.52-.34-.4-.8-.59-1.37-.59s-1,.2-1.34.59Z"/>
    <path class="cls-1" d="M817.26,312.9c.8.79,1.2,1.83,1.2,3.13v8.78c0,.17-.09.26-.26.26h-1.96c-.17,0-.26-.09-.26-.26v-.57s-.01-.06-.04-.08c-.03-.02-.06,0-.09.03-.6.72-1.49,1.08-2.66,1.08-.98,0-1.85-.28-2.6-.84s-1.12-1.55-1.12-2.98.45-2.6,1.36-3.29,2.09-1.05,3.55-1.05h1.5c.07,0,.1-.03.1-.1v-.75c0-.72-.17-1.3-.52-1.74-.35-.44-.79-.66-1.34-.66-.43,0-.79.15-1.08.44s-.47.67-.52,1.14c0,.17-.09.26-.26.26h-2.09c-.17,0-.26-.09-.26-.26.09-1.1.52-2,1.32-2.69s1.77-1.03,2.95-1.03c1.26,0,2.29.4,3.09,1.19ZM815.31,322.54c.45-.38.67-.91.67-1.6v-1.76c0-.07-.04-.1-.1-.1h-1.58c-.69,0-1.24.18-1.65.55-.41.37-.62.91-.62,1.61,0,.62.15,1.08.47,1.4s.72.46,1.24.46c.6,0,1.13-.19,1.58-.57Z"/>
    <path class="cls-1" d="M827.02,312.08c.12.07.16.18.13.34l-.39,1.96c-.02.15-.12.21-.31.15-.22-.09-.47-.13-.72-.13-.1,0-.26.02-.47.05-.53.05-.98.35-1.33.88-.35.53-.53,1.18-.53,1.94v7.54c0,.17-.09.26-.26.26h-1.96c-.17,0-.26-.09-.26-.26v-12.63c0-.17.09-.26.26-.26h1.96c.17,0,.26.09.26.26v1.5c0,.05.01.08.04.09.03,0,.05-.01.06-.06.5-1.27,1.3-1.91,2.4-1.91.43,0,.8.09,1.11.28Z"/>
    <path class="cls-1" d="M829.59,324.17c-.78-.74-1.18-1.74-1.18-3v-5.35c0-1.22.39-2.21,1.18-2.97.78-.76,1.84-1.14,3.16-1.14.88,0,1.65.17,2.31.5s1.17.79,1.52,1.37.53,1.23.53,1.95v.34c0,.17-.09.26-.26.26l-1.96.08c-.17,0-.26-.09-.26-.26v-.26c0-.5-.18-.93-.54-1.29-.36-.36-.81-.54-1.34-.54s-1,.2-1.34.59c-.34.4-.52.9-.52,1.52v5.04c0,.62.17,1.13.52,1.52.35.4.79.59,1.34.59s.98-.18,1.34-.54.54-.79.54-1.29v-.26c0-.17.09-.26.26-.26l1.96.03c.17,0,.26.09.26.26v.39c0,1.12-.4,2.04-1.19,2.75-.79.72-1.85,1.07-3.18,1.07s-2.38-.37-3.16-1.11Z"/>
    <path class="cls-1" d="M847.05,312.84c.58.73.87,1.77.87,3.11v8.86c0,.17-.09.26-.26.26h-1.96c-.17,0-.26-.09-.26-.26v-8.65c0-.72-.15-1.28-.46-1.68-.31-.4-.74-.59-1.29-.59s-1.01.19-1.33.58-.5.93-.53,1.64c0,.1,0,.15-.03.15v8.55c0,.17-.09.26-.26.26h-1.96c-.17,0-.26-.09-.26-.26v-17.57c0-.17.09-.26.26-.26h1.96c.17,0,.26.09.26.26v5.63s.02.06.05.06.07-.01.1-.06c.62-.76,1.49-1.14,2.61-1.14s1.92.37,2.49,1.1Z"/>
  </g>
  <g>
    <path class="cls-2" d="M186.29,234.96c-12.75-12.75-30.36-20.63-49.82-20.63-38.91,0-70.45,31.54-70.45,70.45s31.54,70.45,70.45,70.45,70.45-31.54,70.45-70.45v-70.45l-20.63,20.63ZM123.96,310.69c0,.36-.1.64-.31.85-.21.21-.49.31-.85.31h-12.22c-.36,0-.64-.1-.85-.31-.21-.21-.31-.49-.31-.85v-51.82c0-.36.1-.64.31-.85.21-.21.49-.31.85-.31h12.22c.36,0,.64.1.85.31.21.21.31.49.31.85v51.82ZM153.27,285.09l10.13,25.45c.05.15.08.34.08.54,0,.52-.34.77-1,.77h-12.22c-.31,0-.59-.09-.85-.27-.26-.18-.41-.43-.47-.73l-3.17-10.52c-.05-.2-.14-.31-.27-.31s-.25.1-.35.31l-3.17,10.52c-.05.31-.21.55-.46.73-.26.18-.54.27-.85.27h-12.3c-.41,0-.71-.12-.89-.35-.18-.23-.19-.55-.04-.97l10.13-25.45c.1-.21.1-.41,0-.62l-10.13-25.45c-.05-.15-.08-.34-.08-.54,0-.52.34-.77,1.01-.77h12.37c.31,0,.59.09.85.27.26.18.41.43.47.73l3.09,10.6c.1.21.22.31.35.31s.22-.1.27-.31l3.09-10.6c.05-.31.2-.55.46-.73.26-.18.54-.27.85-.27h12.3c.41,0,.71.12.89.35.18.23.19.55.04.97l-10.13,25.45c-.1.21-.1.41,0,.62Z"/>
    <path class="cls-1" d="M285.83,65.05c-38.91,0-70.45,31.54-70.45,70.45v70.45l20.63-20.63c12.75,12.75,30.36,20.63,49.82,20.63,38.91,0,70.45-31.54,70.45-70.45s-31.54-70.45-70.45-70.45ZM318.32,127.11c-1.92.51-4.91,1.23-7.52,1.54-.3-1.49-.88-3.06-1.81-4.69,2.39-1.17,5.33-1.94,7.77-2.43.67,1.67,1.21,3.52,1.56,5.58ZM315.01,117.94c-2.69,1.61-5.91,2.83-7.75,3.47-.18-.22-.35-.45-.54-.67-.84-.99-1.77-1.98-2.74-2.96,2.71-2.32,5.59-3.82,7.67-4.7,1.11,1.4,2.29,3,3.37,4.87ZM305.58,106.18c1.29,1,2.29,1.88,2.77,2.64.09.13.19.27.28.41-2.28,2.25-5.46,4.62-7.36,5.97-1.12-1.03-2.28-2.04-3.45-3.05,2.7-2.77,5.98-4.91,7.76-5.96ZM295.13,109.85c-1.06-.9-2.11-1.78-3.12-2.65,1.59-2.95,3.71-5.49,5.25-7.13,1.05.83,2.15,1.64,3.23,2.42-1.28,2.94-3.92,5.88-5.36,7.36ZM310.2,83.77c0,1.56-.21,4.9-3.97,4.12-1.94-.4-5.36-1.6-8.52-1.72.23-1.73.26-4.42-.93-7.05,9.45-1.03,13.43,3.22,13.43,4.66ZM288.65,104.22c-1.23-1.14-2.36-2.25-3.34-3.34,2.47-2.09,5.82-3.63,7.95-4.47.61.68,1.3,1.35,2.05,2.02-1.96,2.67-4.9,4.72-6.66,5.79ZM289.15,80.89c1.51,1.42,3.96,3.83,5.28,5.66-1.36.45-2.49,1.34-3.19,2.89-2.31-1.13-5.75-2.92-7.83-4.49,1.22-1.66,3.07-3.02,5.73-4.07ZM281.51,90.4c2.53.14,6.3.46,9.28,1.24.05.93.41,1.88.99,2.82-2.75,2.15-6.43,3.08-8.74,3.47-.79-1.26-1.3-2.48-1.43-3.67-.15-1.37-.19-2.66-.09-3.87ZM313.74,157.21c-1.21,4.78-7.96,10.25-9.08,11.53-.11,1.79-.05,4.32.94,6.1,1.69,3.02,4.47,6.33,4.36,7.5-.12,1.16,0,3.78-4.71,2.5-.55-.15-1.03-.29-1.46-.42-2.85,1.07-7.16.83-8.05.77-.1,0-.18-.08-.29-.08-.07,0-1.1-.42-2.59-.06-.18.04-.3.22-.48.23-.67.06-2.34.17-2.8-.03-.58-.24,0-1.51,1.19-2.06,1.19-.55,5.57-1.43,7.64-.72,2.07.72,2.54-1.52.41-2.18-2.12-.66-6.53-6.37-7-8.99-.26-1.47-.43-2.76-.53-3.61-.06-.49-.57-.8-1.03-.61-.95.39-2.67.87-5.2.79-.45-.01-.8.38-.76.82.19,2.02.56,7.1-.29,10.16-1.08,3.89-.14,4.38-.91,5.18s-3.12.85-3.78,1.57c-.66.72-1.76,1.02-1.87.47,0-.04,0-.08,0-.12-.85.21-2.46.48-2.15-.57.41-1.41,3.12-2.81,4.25-2.73,1.13.08,1.1-1.74.14-3.09-.92-1.29-3.67-7.58-3.34-10.74.03-.26-.06-.51-.27-.68-.5-.39-1.53-1.07-2.92-1.28.59,1.13.97,2.4.97,3.86,0,6.12-1.57,10.47-2.25,11.4-.69.93-.05,2.59-.44,3.08-.39.49-4.26.88-4.84.34-.14-.13-.17-.25-.12-.35-.28.04-.56.05-.68-.09-.25-.29.83-1.15,3.18-1.82,0,0-1.73-7.05-1.21-10.3s-3.19-11.54-6.9-14.21c-3.71-2.67-8.29-10.67-8.64-14.03,0,0-.58-2.09-.58-2.32s-2.09-.46-3.07-6.69c0,0,4.99-1.19,7.19,1.53,0,0,4.36-3.32,11.02-.32,0,0,2.69-1.91,4.84-.93,0,0,.64,3.67-2.42,5.58,0,0,.44,2.18.14,3.96,3.57-.35,11.14-1.32,13.79-3.33,3.53-2.66,11.95-5.09,16.91-3.29,2.2.8,3.63,1.6,4.68,2.11,2.58,1.47,6.61,4.46,8.58,9.48.61,1.66,1.09,4.02.42,6.67ZM315.25,143.58c-3.43-1.27-5.8-2.57-7.09-3.37.44-.6.98-1.45,1.48-2.51,2.03.27,5.27.84,7.79,1.93-.6,1.47-1.36,2.75-2.18,3.96ZM318.51,135.64c-2.15.04-5.27.03-8.01-.23.39-1.32.63-2.83.57-4.48,2.01-.15,5.25-.29,7.65.1.07,1.73,0,3.25-.21,4.6Z"/>
    <path class="cls-1" d="M206.92,135.5c0-38.91-31.54-70.45-70.45-70.45s-70.45,31.54-70.45,70.45,31.54,70.45,70.45,70.45h70.45l-20.63-20.63c12.75-12.75,20.63-30.36,20.63-49.82ZM177.41,175.4c-.49-.43-3.59-.35-3.88-.03-.29.32-5.61.86-6.99-.53-1.38-1.38-3.47-4.97-7.55-7.7-4.07-2.73-10.46-7.98-11.02-13.86-.56-5.89-7.59-.39-9.01-.32-1.42.07-3.51.41-3.47,2.06.04,1.64-.52,10.72-2.2,13.04-1.68,2.32-3.44,5.87-8.44,6.13s-7.1-1.76-4.89-2.09c1.19-.18,2.17-.05,3.12.01-1.27-.59-2.31-1.4-2.26-1.88.07-.64,1.87.52,3.7.52s3.51.04,3.85-2.54c.34-2.58-1.61-7.66-1.01-9.94.6-2.28,1.38-6.58,1.2-8.59-.19-2.02.22-3.21-1.38-3.18-1.61.04-.75,1.68-.71,2.77.04,1.08,0,3.7-2.02,5.19-2.02,1.49-1.79,4.15-2.24,6.39-.45,2.24-1.27,6.43-3.47,8.93-2.2,2.5-1.57,4.71-.78,4.82.78.11,7.36-.07,9.34,1.16,1.98,1.23,3.59,2.24,1.68,2.73-1.91.49-7.96-1.01-10.87-.6-2.91.41-4.78.07-5.64-1.42-.86-1.49-1.35-5.87-.6-9.01.75-3.14,1.62-7.7-.37-7.4s-5.35-.22-6.02,1.57c-.67,1.79,3.09,4.64,3.12,6.19.03,1.55-.73,5.24-1.69,5.72-.96.48-1.13-.31-1.51-.9-.38-.59-2.69-2.9-2.33-3.78.37-.87.62-1.33.11-2.2-.51-.87-5.5-7.25-2.89-9.37,2.61-2.12,3.21-3.53,7.12-4.35,3.91-.82,7.06-4.25,5.92-6.88-1.14-2.63-3.21-9.75-2.01-15.29,1.2-5.54-.92-5.76-.98-7.34-.05-1.58,0-2.88.6-3.53s.49-2.17-1.25-4.35c-1.74-2.17-6.9-13.91-6.52-18.04.38-4.13-2.83-7.17-5.27-4.94-2.45,2.23-4.13,4.89-3.04,10.76,1.09,5.87,6.63,5,7.17,3.48.54-1.52.49-1.79-.92-2.06-1.41-.27.33-1.63,1.52-.76,1.2.87,2.8,4.25-3.09,5.69-5.89,1.45-8.59-8.04-8.84-11.09-.25-3.05,1.95-13.08,8.84-12.98,6.89.1,10.24,5.84,10.84,10.34.6,4.49,3.4,15.13,9.39,21.12,5.99,5.99,7.54,5.99,10.14,7.14,2.6,1.15,13.38,4.74,16.33,6.59,2.95,1.85,6.09,1.9,7.74,4.09,1.65,2.2,6.29,2.05,8.99,2.1s6.06,4.16,4.63,9.07c0,0-2.81.65-3.12,2.49-.31,1.85.67,2-.87,3.8-1.54,1.8-5.27-.85-5.27-.85,0,0-.69.57-.39,2.83.31,2.26,1.64,7.92,7.04,14,5.4,6.08,3.04,4.46,9.07,4.56,6.03.1,7.43,1.06,8.19,2.32.76,1.26-4.31.61-4.8.18Z"/>
    <g>
      <path class="cls-1" d="M278.22,279.45c-1.09,0-3.55-.5-2.69,2.14s0,8.01,0,8.01c.73,3.19-2.14,10.52-1.59,11.75.4.89-.31,4.15-.82,6.14.2-.27.53-.51.88-.9.64-.72,3.73-.64,6.35-1,2.62-.36,1.75-2.36,1.46-3.8-.29-1.43-.07-1.86-.64-10.03-.57-8.17.93-9.96,2.22-11.39.54-.6,1.73-2.56,2.91-4.62-2.9,1.95-7.24,3.71-8.08,3.71Z"/>
      <path class="cls-1" d="M285.83,214.33h-70.45l20.63,20.63c-12.75,12.75-20.63,30.36-20.63,49.82,0,38.91,31.54,70.45,70.45,70.45s70.45-31.54,70.45-70.45-31.54-70.45-70.45-70.45ZM341.92,308.1c-3.1-.1-6.79-1.35-6.79-1.35-5.34-1.8-8.14-5.04-12.54-9.04-4.39-4-9.24-12.09-11.54-18.38-2.3-6.29-6.24-8.29-6.24-8.29.2,2-1.4,4.54-2.2,5.29-.8.75-.55,5.29-.55,5.29-.8,5.49,6.78,15.03,8.2,15.36,1.42.33,1.12,4.5,1.35,5.27s-.42.94-.42.94c-.73.12-1.62,2.35-2.06,3.94-.44,1.6-1.38,1.33-2.02,1.23s-2.27.83-2.83.85-.83.02-.75-.46c.08-.48-1.25-.46-2.13-.62-.88-.15-2.75,1.12-3.35,1.58-.6.46-1.13,0-1.12-.42.02-.42-.29-.37-.75-.1s-1.25.88-2.12.25.52-1.31,1.38-2.46c.87-1.15,3.17-1.17,5.52-.98,2.35.19,2.54-.15,4.39-1.9,1.85-1.75.27-3.25-.29-3.37-.56-.12-3.42-1.77-4.06-2.38-.63-.62-.56.64-.56.64-.61.06-4.95-5.62-5.39-6.53s-1.29-2.07-2.47-2.45c-1.18-.38-.73,1.87-.73,1.87-1.38,0-.49,1.47-.49,1.47-1.58.02-.55,1.54-.55,1.54-1.62.15-.56,1.64-.56,1.64,0,0-.29-.27-1.01-.13-.72.14-1,4.51-.64,6.16.36,1.65-.14,3.08-.72,3.15-.57.07-2.01,3.51-3.73,3.37-1.72-.14-4.37.21-5.01.34-.64.12-2.51.81-2.65,0-.14-.81-.86-.26-1.58-.05-.72.21-1.86-.29-2.01-1.07,0-.02,0-.04,0-.07-.1.37-.18.64-.22.76-.22.69-3.82,2.78-4.32,2.41-.5-.36-4.46,1.46-5.1,1.41-.64-.05.18-1.14-1.5-.46-1.68.68-.64-.18-2.64-.55-2-.36-.46-2.37,3.32-3.37,3.78-1,5.1-2.5,5.83-3.82.73-1.32,1.27-6.74.59-8.79-.68-2.05-.14-6.92-.14-6.92-1.46-.64-1.09-2.46-1.55-4.13-.46-1.68-5.1-5.11-5.1-5.11-4.1,1.32-6.01,9.56-6.01,9.56,0,0-1.14-2.14-2.32.68-1.18,2.82-3.19,4.37-3.92,5.01-.73.64-5.69,4.05-7.01,4.69-1.32.64-5.01,5.55-5.78,5.92-.77.36-3.19,3.37-3.23,5.14-.05,1.78-.73,1.91-1.37,2.32s-1.64.18-1.64.18c-2.14-1.96-1.09-3.69-1.05-5.24.05-1.55,3.14-5.87,6.1-7.92,2.96-2.05,5.87-7.83,8.88-10.7,3-2.87,5.83-13.07,6.24-14.2.41-1.14-.55-1.32-1.41-1.32s-2.64-1.59-3.55-2.23c-.91-.64-.59-3.37-.5-4.51.09-1.14-.59-1.82-.27-2.5.32-.68.27-2-.09-3.46-.36-1.46.36-2.05.36-2.05,2.87-3.96,8.51-2.5,10.24-2.32,1.73.19,3.68,1.54,3.68,1.54-.67,1,.83,1.2.83,1.2-.56.72,1.13,1.37,1.13,1.37.69.28,3.68-.24,3.68-.24,2.75-.05,7.54-2.75,8.54-2.8,1-.05,5.39-1.4,15.08-1,9.69.4,11.94,3.9,14.98,5.24,3.05,1.35,9.09,10.89,9.64,12.74.55,1.85,5.99,14.73,12.44,20.88,6.44,6.14,14.68,8.39,16.58,9.34,1.9.95,2.65,3.2-.45,3.1Z"/>
    </g>
  </g>
  <g>
    <path class="cls-1" d="M404.31,154.62c-.18-.18-.26-.39-.26-.64v-51.02c0-.25.09-.46.26-.64s.39-.26.64-.26h8.83c.25,0,.46.09.64.26.18.18.26.39.26.64v51.02c0,.25-.09.47-.26.64s-.39.26-.64.26h-8.83c-.25,0-.47-.09-.64-.26Z"/>
    <path class="cls-1" d="M446.65,118.77c1.79,2.19,2.68,5.32,2.68,9.4v14.64c0,3.98-.88,7.08-2.64,9.32-1.76,2.24-4.38,3.36-7.85,3.36-2.82,0-5.08-.96-6.79-2.87-.1-.1-.2-.14-.3-.11-.1.03-.15.11-.15.26v1.21c0,.25-.09.47-.26.64s-.39.26-.64.26h-8.83c-.25,0-.47-.09-.64-.26-.18-.18-.26-.39-.26-.64v-51.02c0-.25.09-.46.26-.64s.39-.26.64-.26h8.83c.25,0,.46.09.64.26.18.18.26.39.26.64v15.32c0,.1.05.15.15.15.2,0,.4-.12.6-.38,1.71-1.71,3.87-2.57,6.49-2.57,3.42,0,6.03,1.09,7.81,3.28ZM437.71,125.83c-.65-.8-1.51-1.21-2.57-1.21-.91,0-1.69.3-2.34.91-.65.6-1.06,1.41-1.21,2.42v15.09c.15,1.01.55,1.81,1.21,2.42.65.6,1.43.91,2.34.91,1.06,0,1.91-.4,2.57-1.21.65-.8.98-1.84.98-3.09v-13.13c0-1.26-.33-2.29-.98-3.09Z"/>
    <path class="cls-1" d="M482.28,138.54c-.18.18-.39.26-.64.26h-16.6c-.25,0-.38.13-.38.38v2.79c0,1.26.34,2.3,1.02,3.13.68.83,1.55,1.25,2.6,1.25.96,0,1.74-.31,2.34-.94.6-.63,1.01-1.42,1.21-2.38.15-.5.48-.75.98-.75l8.68.45c.25,0,.46.09.64.26.18.18.24.42.19.72-.35,3.88-1.7,6.81-4.04,8.79-2.34,1.99-5.67,2.98-10,2.98s-7.98-1.12-10.49-3.36c-2.52-2.24-3.77-5.35-3.77-9.32v-14.64c0-3.82,1.27-6.89,3.81-9.21,2.54-2.31,6.02-3.47,10.45-3.47s7.91,1.16,10.45,3.47c2.54,2.31,3.81,5.38,3.81,9.21v9.74c0,.25-.09.47-.26.64ZM465.67,125.83c-.68.81-1.02,1.84-1.02,3.09v2.94c0,.25.12.38.38.38h6.49c.25,0,.38-.12.38-.38v-2.94c0-1.26-.34-2.29-1.02-3.09-.68-.8-1.55-1.21-2.6-1.21s-1.92.4-2.6,1.21Z"/>
    <path class="cls-1" d="M507.97,116.39c.4.25.55.63.45,1.13l-1.43,8.83c-.05.55-.4.75-1.06.6-.55-.2-1.23-.3-2.04-.3-.75,0-1.41.1-1.96.3-1.16.2-2.09.89-2.79,2.08-.71,1.18-1.06,2.55-1.06,4.11v20.76c0,.25-.09.47-.26.64-.18.18-.39.26-.64.26h-8.83c-.25,0-.47-.09-.64-.26-.18-.18-.26-.39-.26-.64v-36.91c0-.25.09-.46.26-.64s.39-.26.64-.26h8.83c.25,0,.46.09.64.26.18.18.26.39.26.64v2.94c0,.2.04.31.11.34.08.03.16-.04.26-.19,1.36-2.97,3.47-4.45,6.34-4.45,1.36,0,2.42.25,3.17.75Z"/>
    <path class="cls-1" d="M512.99,110.01c-1.13-1.13-1.7-2.55-1.7-4.26s.55-3.19,1.66-4.3c1.11-1.11,2.54-1.66,4.3-1.66s3.18.55,4.26,1.66c1.08,1.11,1.62,2.54,1.62,4.3s-.55,3.13-1.66,4.26c-1.11,1.13-2.52,1.7-4.23,1.7s-3.13-.57-4.26-1.7ZM512.31,154.62c-.18-.18-.26-.39-.26-.64v-36.98c0-.25.09-.46.26-.64s.39-.26.64-.26h8.83c.25,0,.46.09.64.26.18.18.26.39.26.64v36.98c0,.25-.09.47-.26.64s-.39.26-.64.26h-8.83c-.25,0-.47-.09-.64-.26Z"/>
    <path class="cls-1" d="M552.88,118.96c2.67,2.31,4,5.36,4,9.13v25.89c0,.25-.09.47-.26.64s-.39.26-.64.26h-8.83c-.25,0-.47-.09-.64-.26-.18-.18-.26-.39-.26-.64v-1.66c0-.15-.05-.25-.15-.3-.1-.05-.2,0-.3.15-1.66,2.11-4.23,3.22-7.7,3.32-2.92,0-5.45-.8-7.58-2.42-2.14-1.61-3.21-4.68-3.21-9.21s1.29-7.9,3.89-9.66c2.59-1.76,6.33-2.64,11.21-2.64h3.47c.25,0,.38-.12.38-.38v-1.89c0-1.36-.37-2.48-1.09-3.36-.73-.88-1.65-1.32-2.75-1.32-.86,0-1.57.26-2.15.79-.58.53-.94,1.27-1.09,2.23-.05.6-.38.91-.98.91l-9.06-.08c-.6,0-.91-.3-.91-.91.25-3.67,1.69-6.6,4.3-8.79,2.62-2.19,5.94-3.28,9.96-3.28,4.28,0,7.75,1.16,10.42,3.47ZM544.84,146.09c.93-.78,1.4-1.82,1.4-3.13v-3.55c0-.25-.13-.38-.38-.38h-3.09c-1.36,0-2.45.39-3.28,1.17-.83.78-1.25,1.85-1.25,3.21,0,1.26.31,2.21.94,2.87.63.65,1.47.98,2.53.98,1.16,0,2.2-.39,3.13-1.17Z"/>
    <path class="cls-1" d="M587.82,118.88c1.71,2.26,2.57,5.43,2.57,9.51v25.59c0,.25-.09.47-.26.64s-.39.26-.64.26h-8.83c-.25,0-.47-.09-.64-.26-.18-.18-.26-.39-.26-.64v-24.75c0-1.46-.29-2.59-.87-3.4-.58-.8-1.42-1.21-2.53-1.21s-2.05.42-2.68,1.25c-.63.83-.94,2-.94,3.51v24.6c0,.25-.09.47-.26.64s-.39.26-.64.26h-8.83c-.25,0-.47-.09-.64-.26-.18-.18-.26-.39-.26-.64v-36.98c0-.25.09-.46.26-.64s.39-.26.64-.26h8.83c.25,0,.46.09.64.26.18.18.26.39.26.64v1.43c0,.15.06.23.19.23s.29-.1.49-.3c1.61-1.91,3.85-2.87,6.72-2.87,3.42,0,5.99,1.13,7.7,3.4Z"/>
    <path class="cls-1" d="M427.52,166.21c2.16,1.36,3.84,3.26,5.02,5.7,1.18,2.44,1.77,5.22,1.77,8.34,0,4.68-1.26,8.43-3.77,11.25-2.52,2.82-5.81,4.23-9.89,4.23h-5.66c-.25,0-.38.13-.38.38v20.08c0,.25-.09.47-.26.64s-.39.26-.64.26h-8.83c-.25,0-.47-.09-.64-.26-.18-.18-.26-.39-.26-.64v-51.1c0-.25.09-.46.26-.64.18-.18.39-.26.64-.26h15.25c2.77,0,5.23.68,7.4,2.04ZM422.2,185.57c.98-1.23,1.47-2.93,1.47-5.09s-.49-3.95-1.47-5.21c-.98-1.26-2.28-1.89-3.89-1.89h-3.32c-.25,0-.38.13-.38.38v13.28c0,.25.12.38.38.38h3.32c1.61,0,2.91-.62,3.89-1.85Z"/>
    <path class="cls-1" d="M459.22,178.59c.4.25.55.63.45,1.13l-1.43,8.83c-.05.55-.4.75-1.06.6-.55-.2-1.23-.3-2.04-.3-.75,0-1.41.1-1.96.3-1.16.2-2.09.89-2.79,2.08-.71,1.18-1.06,2.55-1.06,4.11v20.76c0,.25-.09.47-.26.64-.18.18-.39.26-.64.26h-8.83c-.25,0-.47-.09-.64-.26-.18-.18-.26-.39-.26-.64v-36.91c0-.25.09-.46.26-.64s.39-.26.64-.26h8.83c.25,0,.46.09.64.26.18.18.26.39.26.64v2.94c0,.2.04.31.11.34.08.03.16-.04.26-.19,1.36-2.97,3.47-4.45,6.34-4.45,1.36,0,2.42.25,3.17.75Z"/>
    <path class="cls-1" d="M464.24,172.21c-1.13-1.13-1.7-2.55-1.7-4.26s.55-3.19,1.66-4.3c1.11-1.11,2.54-1.66,4.3-1.66s3.18.55,4.26,1.66c1.08,1.11,1.62,2.54,1.62,4.3s-.55,3.13-1.66,4.26c-1.11,1.13-2.52,1.7-4.23,1.7s-3.13-.57-4.26-1.7ZM463.56,216.82c-.18-.18-.26-.39-.26-.64v-36.98c0-.25.09-.46.26-.64s.39-.26.64-.26h8.83c.25,0,.46.09.64.26.18.18.26.39.26.64v36.98c0,.25-.09.47-.26.64s-.39.26-.64.26h-8.83c-.25,0-.47-.09-.64-.26Z"/>
    <path class="cls-1" d="M522.62,181.16c1.71,2.31,2.57,5.56,2.57,9.74v25.28c0,.25-.09.47-.26.64s-.39.26-.64.26h-8.83c-.25,0-.47-.09-.64-.26-.18-.18-.26-.39-.26-.64v-24.6c0-1.51-.3-2.68-.91-3.51-.6-.83-1.41-1.25-2.42-1.25-1.11,0-1.98.42-2.6,1.25-.63.83-.94,2-.94,3.51v24.6c0,.25-.09.47-.26.64s-.39.26-.64.26h-8.75c-.25,0-.47-.09-.64-.26-.18-.18-.26-.39-.26-.64v-24.6c0-1.51-.3-2.68-.91-3.51-.6-.83-1.41-1.25-2.42-1.25-1.11,0-1.98.42-2.6,1.25-.63.83-.94,2-.94,3.51v24.6c0,.25-.09.47-.26.64s-.39.26-.64.26h-8.83c-.25,0-.47-.09-.64-.26-.18-.18-.26-.39-.26-.64v-36.98c0-.25.09-.46.26-.64s.39-.26.64-.26h8.83c.25,0,.46.09.64.26.18.18.26.39.26.64v.98c0,.15.05.25.15.3.1.05.2.03.3-.08,1.01-1.01,2.11-1.71,3.32-2.11,1.21-.4,2.36-.6,3.47-.6,3.92,0,6.74,1.56,8.45,4.68l.15.08c.15,0,.33-.15.53-.45,1.06-1.61,2.33-2.73,3.81-3.36,1.48-.63,2.98-.94,4.49-.94,3.42,0,5.99,1.16,7.7,3.47Z"/>
    <path class="cls-1" d="M555.07,181.16c2.67,2.31,4,5.36,4,9.13v25.89c0,.25-.09.47-.26.64s-.39.26-.64.26h-8.83c-.25,0-.47-.09-.64-.26-.18-.18-.26-.39-.26-.64v-1.66c0-.15-.05-.25-.15-.3-.1-.05-.2,0-.3.15-1.66,2.11-4.23,3.22-7.7,3.32-2.92,0-5.45-.8-7.58-2.42-2.14-1.61-3.21-4.68-3.21-9.21s1.29-7.9,3.89-9.66c2.59-1.76,6.33-2.64,11.21-2.64h3.47c.25,0,.38-.12.38-.38v-1.89c0-1.36-.37-2.48-1.09-3.36-.73-.88-1.65-1.32-2.75-1.32-.86,0-1.57.26-2.15.79-.58.53-.94,1.27-1.09,2.23-.05.6-.38.91-.98.91l-9.06-.08c-.6,0-.91-.3-.91-.91.25-3.67,1.69-6.6,4.3-8.79,2.62-2.19,5.94-3.28,9.96-3.28,4.28,0,7.75,1.16,10.42,3.47ZM547.03,208.29c.93-.78,1.4-1.82,1.4-3.13v-3.55c0-.25-.13-.38-.38-.38h-3.09c-1.36,0-2.45.39-3.28,1.17-.83.78-1.25,1.85-1.25,3.21,0,1.26.31,2.21.94,2.87.63.65,1.47.98,2.53.98,1.16,0,2.2-.39,3.13-1.17Z"/>
    <path class="cls-1" d="M581.67,185.5c-.18.18-.39.26-.64.26h-4.23c-.25,0-.38.13-.38.38v17.96c0,1.46.28,2.47.83,3.02.55.55,1.38.81,2.49.75h.53c.25,0,.46.09.64.26.18.18.26.39.26.64v7.4c0,.25-.09.47-.26.64s-.39.26-.64.26h-3.02c-3.67,0-6.44-.62-8.3-1.85-1.86-1.23-2.79-3.58-2.79-7.06v-22.04c0-.25-.13-.38-.38-.38h-2.49c-.25,0-.47-.09-.64-.26-.18-.18-.26-.39-.26-.64v-5.66c0-.25.09-.46.26-.64s.39-.26.64-.26h2.49c.25,0,.38-.12.38-.38v-8.38c0-.25.09-.46.26-.64s.39-.26.64-.26h8.45c.25,0,.46.09.64.26.18.18.26.39.26.64v8.38c0,.25.12.38.38.38h4.23c.25,0,.46.09.64.26.18.18.26.39.26.64v5.66c0,.25-.09.47-.26.64Z"/>
    <path class="cls-1" d="M589.52,214.29c-2.54-2.26-3.81-5.36-3.81-9.28v-14.64c0-3.82,1.28-6.89,3.85-9.21,2.57-2.31,6.06-3.47,10.49-3.47s8,1.16,10.57,3.47c2.57,2.31,3.85,5.38,3.85,9.21v14.64c0,3.92-1.27,7.02-3.81,9.28-2.54,2.26-6.08,3.4-10.6,3.4s-7.99-1.13-10.53-3.4ZM602.77,207.27c.7-.8,1.06-1.84,1.06-3.09v-13.06c0-1.26-.35-2.29-1.06-3.09-.71-.8-1.61-1.21-2.72-1.21s-2,.4-2.68,1.21c-.68.81-1.02,1.84-1.02,3.09v13.06c0,1.26.34,2.29,1.02,3.09.68.81,1.57,1.21,2.68,1.21s2.01-.4,2.72-1.21Z"/>
    <path class="cls-1" d="M619.56,216.82c-.18-.18-.26-.39-.26-.64v-51.02c0-.25.09-.46.26-.64s.39-.26.64-.26h8.83c.25,0,.46.09.64.26.18.18.26.39.26.64v51.02c0,.25-.09.47-.26.64s-.39.26-.64.26h-8.83c-.25,0-.47-.09-.64-.26Z"/>
    <path class="cls-1" d="M638.65,214.29c-2.54-2.26-3.81-5.36-3.81-9.28v-14.64c0-3.82,1.28-6.89,3.85-9.21,2.57-2.31,6.06-3.47,10.49-3.47s8,1.16,10.57,3.47c2.57,2.31,3.85,5.38,3.85,9.21v14.64c0,3.92-1.27,7.02-3.81,9.28-2.54,2.26-6.08,3.4-10.6,3.4s-7.99-1.13-10.53-3.4ZM651.9,207.27c.7-.8,1.06-1.84,1.06-3.09v-13.06c0-1.26-.35-2.29-1.06-3.09-.71-.8-1.61-1.21-2.72-1.21s-2,.4-2.68,1.21c-.68.81-1.02,1.84-1.02,3.09v13.06c0,1.26.34,2.29,1.02,3.09.68.81,1.57,1.21,2.68,1.21s2.01-.4,2.72-1.21Z"/>
    <path class="cls-1" d="M686.28,178.55c.18-.18.39-.26.64-.26h8.83c.25,0,.46.09.64.26.18.18.26.39.26.64v36.08c0,5.58-1.32,9.89-3.96,12.91-2.64,3.02-7.38,4.53-14.23,4.53-1.36,0-2.42-.03-3.17-.08-.6-.05-.91-.38-.91-.98v-7.4c0-.65.33-.93.98-.83,2.97.1,5.22-.19,6.75-.87,1.53-.68,2.57-1.7,3.09-3.06s.79-3.14.79-5.36c0-.15-.05-.23-.15-.23s-.2.08-.3.23c-.91,1.21-2,2.05-3.28,2.53s-2.53.72-3.74.72c-3.47,0-6.06-1.12-7.77-3.36-1.71-2.24-2.57-5.35-2.57-9.32v-14.34c0-4.08.87-7.21,2.6-9.4,1.74-2.19,4.31-3.28,7.74-3.28,3.07,0,5.41,1.13,7.02,3.4.1.15.2.2.3.15.1-.05.15-.15.15-.3v-1.74c0-.25.09-.46.26-.64ZM684.99,206.97c.68-.8,1.02-1.84,1.02-3.09v-12.76c0-1.26-.34-2.29-1.02-3.09-.68-.8-1.55-1.21-2.6-1.21s-1.91.4-2.57,1.21c-.66.81-.98,1.84-.98,3.09v12.76c0,1.26.33,2.29.98,3.09.65.81,1.51,1.21,2.57,1.21s1.92-.4,2.6-1.21Z"/>
    <path class="cls-1" d="M703.33,172.21c-1.13-1.13-1.7-2.55-1.7-4.26s.55-3.19,1.66-4.3c1.11-1.11,2.54-1.66,4.3-1.66s3.18.55,4.26,1.66c1.08,1.11,1.62,2.54,1.62,4.3s-.55,3.13-1.66,4.26c-1.11,1.13-2.52,1.7-4.23,1.7s-3.13-.57-4.26-1.7ZM702.65,216.82c-.18-.18-.26-.39-.26-.64v-36.98c0-.25.09-.46.26-.64s.39-.26.64-.26h8.83c.25,0,.46.09.64.26.18.18.26.39.26.64v36.98c0,.25-.09.47-.26.64s-.39.26-.64.26h-8.83c-.25,0-.47-.09-.64-.26Z"/>
    <path class="cls-1" d="M722.05,214.29c-2.54-2.26-3.81-5.36-3.81-9.28v-14.64c0-3.82,1.27-6.89,3.81-9.21,2.54-2.31,6.02-3.47,10.45-3.47s7.91,1.13,10.45,3.4,3.81,5.21,3.81,8.83v1.36c0,.25-.09.47-.26.64-.18.18-.39.26-.64.26l-8.83.38c-.6,0-.91-.3-.91-.91v-.91c0-1.11-.34-2.04-1.02-2.79-.68-.75-1.55-1.13-2.6-1.13s-1.99.4-2.64,1.21c-.66.81-.98,1.86-.98,3.17v12.98c0,1.31.33,2.37.98,3.17.65.81,1.53,1.21,2.64,1.21s1.92-.39,2.6-1.17c.68-.78,1.02-1.7,1.02-2.75v-.98c0-.25.09-.46.26-.64s.39-.26.64-.26l8.83.08c.25,0,.46.09.64.26.18.18.26.39.26.64v1.74c0,3.72-1.27,6.69-3.81,8.91-2.54,2.21-6.03,3.32-10.45,3.32s-7.91-1.13-10.45-3.4Z"/>
    <path class="cls-1" d="M775.97,181.16c2.67,2.31,4,5.36,4,9.13v25.89c0,.25-.09.47-.26.64s-.39.26-.64.26h-8.83c-.25,0-.47-.09-.64-.26-.18-.18-.26-.39-.26-.64v-1.66c0-.15-.05-.25-.15-.3-.1-.05-.2,0-.3.15-1.66,2.11-4.23,3.22-7.7,3.32-2.92,0-5.45-.8-7.58-2.42-2.14-1.61-3.21-4.68-3.21-9.21s1.29-7.9,3.89-9.66c2.59-1.76,6.33-2.64,11.21-2.64h3.47c.25,0,.38-.12.38-.38v-1.89c0-1.36-.37-2.48-1.09-3.36-.73-.88-1.65-1.32-2.75-1.32-.86,0-1.57.26-2.15.79-.58.53-.94,1.27-1.09,2.23-.05.6-.38.91-.98.91l-9.06-.08c-.6,0-.91-.3-.91-.91.25-3.67,1.69-6.6,4.3-8.79,2.62-2.19,5.94-3.28,9.96-3.28,4.28,0,7.75,1.16,10.42,3.47ZM767.93,208.29c.93-.78,1.4-1.82,1.4-3.13v-3.55c0-.25-.13-.38-.38-.38h-3.09c-1.36,0-2.45.39-3.28,1.17-.83.78-1.25,1.85-1.25,3.21,0,1.26.31,2.21.94,2.87.63.65,1.47.98,2.53.98,1.16,0,2.2-.39,3.13-1.17Z"/>
    <path class="cls-1" d="M785.14,216.82c-.18-.18-.26-.39-.26-.64v-51.02c0-.25.09-.46.26-.64s.39-.26.64-.26h8.83c.25,0,.46.09.64.26.18.18.26.39.26.64v51.02c0,.25-.09.47-.26.64s-.39.26-.64.26h-8.83c-.25,0-.47-.09-.64-.26Z"/>
    <path class="cls-1" d="M407.41,275.84c-2.74-2.69-4.11-6.3-4.11-10.83v-24.45c0-4.48,1.37-8.05,4.11-10.72,2.74-2.67,6.38-4,10.91-4s8.24,1.33,10.98,4c2.74,2.67,4.11,6.24,4.11,10.72v.83c0,.25-.09.47-.26.64-.18.18-.39.26-.64.26l-8.83.38c-.6,0-.91-.28-.91-.83v-1.96c0-1.46-.4-2.64-1.21-3.55-.8-.91-1.89-1.36-3.25-1.36s-2.37.45-3.17,1.36c-.8.91-1.21,2.09-1.21,3.55v26.04c0,1.46.4,2.63,1.21,3.51.8.88,1.86,1.32,3.17,1.32s2.44-.44,3.25-1.32c.8-.88,1.21-2.05,1.21-3.51v-2.04c0-.25.09-.46.26-.64s.39-.26.64-.26l8.83.38c.25,0,.46.09.64.26.18.18.26.39.26.64v.75c0,4.53-1.38,8.14-4.15,10.83-2.77,2.69-6.42,4.04-10.94,4.04s-8.16-1.35-10.91-4.04Z"/>
    <path class="cls-1" d="M441.52,276.49c-2.54-2.26-3.81-5.36-3.81-9.28v-14.64c0-3.82,1.28-6.89,3.85-9.21,2.57-2.31,6.06-3.47,10.49-3.47s8,1.16,10.57,3.47c2.57,2.31,3.85,5.38,3.85,9.21v14.64c0,3.92-1.27,7.02-3.81,9.28-2.54,2.26-6.08,3.4-10.6,3.4s-7.99-1.13-10.53-3.4ZM454.77,269.47c.7-.8,1.06-1.84,1.06-3.09v-13.06c0-1.26-.35-2.29-1.06-3.09-.71-.8-1.61-1.21-2.72-1.21s-2,.4-2.68,1.21c-.68.81-1.02,1.84-1.02,3.09v13.06c0,1.26.34,2.29,1.02,3.09.68.81,1.57,1.21,2.68,1.21s2.01-.4,2.72-1.21Z"/>
    <path class="cls-1" d="M497.33,243.28c1.71,2.26,2.57,5.43,2.57,9.51v25.59c0,.25-.09.47-.26.64s-.39.26-.64.26h-8.83c-.25,0-.47-.09-.64-.26-.18-.18-.26-.39-.26-.64v-24.75c0-1.46-.29-2.59-.87-3.4-.58-.8-1.42-1.21-2.53-1.21s-2.05.42-2.68,1.25c-.63.83-.94,2-.94,3.51v24.6c0,.25-.09.47-.26.64s-.39.26-.64.26h-8.83c-.25,0-.47-.09-.64-.26-.18-.18-.26-.39-.26-.64v-36.98c0-.25.09-.46.26-.64s.39-.26.64-.26h8.83c.25,0,.46.09.64.26.18.18.26.39.26.64v1.43c0,.15.06.23.19.23s.29-.1.49-.3c1.61-1.91,3.85-2.87,6.72-2.87,3.42,0,5.99,1.13,7.7,3.4Z"/>
    <path class="cls-1" d="M523.11,240.75c.18.18.26.39.26.64v5.66c0,.25-.09.47-.26.64s-.39.26-.64.26h-4.15c-.25,0-.38.13-.38.38v30.04c0,.25-.09.47-.26.64s-.39.26-.64.26h-8.75c-.25,0-.47-.09-.64-.26-.18-.18-.26-.39-.26-.64v-30.04c0-.25-.13-.38-.38-.38h-2.26c-.25,0-.47-.09-.64-.26-.18-.18-.26-.39-.26-.64v-5.66c0-.25.09-.46.26-.64.18-.18.39-.26.64-.26h2.26c.25,0,.38-.12.38-.38v-2.04c0-4.53,1.14-7.66,3.43-9.4,2.29-1.74,5.92-2.55,10.91-2.45h.3c.25,0,.46.09.64.26.17.18.26.39.26.64l-.08,6.04c0,.25-.09.47-.26.64-.18.18-.39.26-.64.26h-.15c-2.57.05-3.85,1.61-3.85,4.68v1.36c0,.25.12.38.38.38h4.15c.25,0,.46.09.64.26Z"/>
    <path class="cls-1" d="M555.56,262.94c-.18.18-.39.26-.64.26h-16.6c-.25,0-.38.13-.38.38v2.79c0,1.26.34,2.3,1.02,3.13.68.83,1.55,1.25,2.6,1.25.96,0,1.74-.31,2.34-.94.6-.63,1.01-1.42,1.21-2.38.15-.5.48-.75.98-.75l8.68.45c.25,0,.46.09.64.26.18.18.24.42.19.72-.35,3.88-1.7,6.81-4.04,8.79-2.34,1.99-5.67,2.98-10,2.98s-7.98-1.12-10.49-3.36c-2.52-2.24-3.77-5.35-3.77-9.32v-14.64c0-3.82,1.27-6.89,3.81-9.21,2.54-2.31,6.02-3.47,10.45-3.47s7.91,1.16,10.45,3.47c2.54,2.31,3.81,5.38,3.81,9.21v9.74c0,.25-.09.47-.26.64ZM538.95,250.22c-.68.81-1.02,1.84-1.02,3.09v2.94c0,.25.12.38.38.38h6.49c.25,0,.38-.12.38-.38v-2.94c0-1.26-.34-2.29-1.02-3.09-.68-.8-1.55-1.21-2.6-1.21s-1.92.4-2.6,1.21Z"/>
    <path class="cls-1" d="M581.26,240.79c.4.25.55.63.45,1.13l-1.43,8.83c-.05.55-.4.75-1.06.6-.55-.2-1.23-.3-2.04-.3-.75,0-1.41.1-1.96.3-1.16.2-2.09.89-2.79,2.08-.71,1.18-1.06,2.55-1.06,4.11v20.76c0,.25-.09.47-.26.64-.18.18-.39.26-.64.26h-8.83c-.25,0-.47-.09-.64-.26-.18-.18-.26-.39-.26-.64v-36.91c0-.25.09-.46.26-.64s.39-.26.64-.26h8.83c.25,0,.46.09.64.26.18.18.26.39.26.64v2.94c0,.2.04.31.11.34.08.03.16-.04.26-.19,1.36-2.97,3.47-4.45,6.34-4.45,1.36,0,2.42.25,3.17.75Z"/>
    <path class="cls-1" d="M612.39,262.94c-.18.18-.39.26-.64.26h-16.6c-.25,0-.38.13-.38.38v2.79c0,1.26.34,2.3,1.02,3.13.68.83,1.55,1.25,2.6,1.25.96,0,1.74-.31,2.34-.94.6-.63,1.01-1.42,1.21-2.38.15-.5.48-.75.98-.75l8.68.45c.25,0,.46.09.64.26.18.18.24.42.19.72-.35,3.88-1.7,6.81-4.04,8.79-2.34,1.99-5.67,2.98-10,2.98s-7.98-1.12-10.49-3.36c-2.52-2.24-3.77-5.35-3.77-9.32v-14.64c0-3.82,1.27-6.89,3.81-9.21,2.54-2.31,6.02-3.47,10.45-3.47s7.91,1.16,10.45,3.47c2.54,2.31,3.81,5.38,3.81,9.21v9.74c0,.25-.09.47-.26.64ZM595.79,250.22c-.68.81-1.02,1.84-1.02,3.09v2.94c0,.25.12.38.38.38h6.49c.25,0,.38-.12.38-.38v-2.94c0-1.26-.34-2.29-1.02-3.09-.68-.8-1.55-1.21-2.6-1.21s-1.92.4-2.6,1.21Z"/>
    <path class="cls-1" d="M643.3,243.28c1.71,2.26,2.57,5.43,2.57,9.51v25.59c0,.25-.09.47-.26.64s-.39.26-.64.26h-8.83c-.25,0-.47-.09-.64-.26-.18-.18-.26-.39-.26-.64v-24.75c0-1.46-.29-2.59-.87-3.4-.58-.8-1.42-1.21-2.53-1.21s-2.05.42-2.68,1.25c-.63.83-.94,2-.94,3.51v24.6c0,.25-.09.47-.26.64s-.39.26-.64.26h-8.83c-.25,0-.47-.09-.64-.26-.18-.18-.26-.39-.26-.64v-36.98c0-.25.09-.46.26-.64s.39-.26.64-.26h8.83c.25,0,.46.09.64.26.18.18.26.39.26.64v1.43c0,.15.06.23.19.23s.29-.1.49-.3c1.61-1.91,3.85-2.87,6.72-2.87,3.42,0,5.99,1.13,7.7,3.4Z"/>
    <path class="cls-1" d="M654.58,276.49c-2.54-2.26-3.81-5.36-3.81-9.28v-14.64c0-3.82,1.27-6.89,3.81-9.21,2.54-2.31,6.02-3.47,10.45-3.47s7.91,1.13,10.45,3.4,3.81,5.21,3.81,8.83v1.36c0,.25-.09.47-.26.64-.18.18-.39.26-.64.26l-8.83.38c-.6,0-.91-.3-.91-.91v-.91c0-1.11-.34-2.04-1.02-2.79-.68-.75-1.55-1.13-2.6-1.13s-1.99.4-2.64,1.21c-.66.81-.98,1.86-.98,3.17v12.98c0,1.31.33,2.37.98,3.17.65.81,1.53,1.21,2.64,1.21s1.92-.39,2.6-1.17c.68-.78,1.02-1.7,1.02-2.75v-.98c0-.25.09-.46.26-.64s.39-.26.64-.26l8.83.08c.25,0,.46.09.64.26.18.18.26.39.26.64v1.74c0,3.72-1.27,6.69-3.81,8.91-2.54,2.21-6.03,3.32-10.45,3.32s-7.91-1.13-10.45-3.4Z"/>
    <path class="cls-1" d="M711.79,262.94c-.18.18-.39.26-.64.26h-16.6c-.25,0-.38.13-.38.38v2.79c0,1.26.34,2.3,1.02,3.13.68.83,1.55,1.25,2.6,1.25.96,0,1.74-.31,2.34-.94.6-.63,1.01-1.42,1.21-2.38.15-.5.48-.75.98-.75l8.68.45c.25,0,.46.09.64.26.18.18.24.42.19.72-.35,3.88-1.7,6.81-4.04,8.79-2.34,1.99-5.67,2.98-10,2.98s-7.98-1.12-10.49-3.36c-2.52-2.24-3.77-5.35-3.77-9.32v-14.64c0-3.82,1.27-6.89,3.81-9.21,2.54-2.31,6.02-3.47,10.45-3.47s7.91,1.16,10.45,3.47c2.54,2.31,3.81,5.38,3.81,9.21v9.74c0,.25-.09.47-.26.64ZM695.18,250.22c-.68.81-1.02,1.84-1.02,3.09v2.94c0,.25.12.38.38.38h6.49c.25,0,.38-.12.38-.38v-2.94c0-1.26-.34-2.29-1.02-3.09-.68-.8-1.55-1.21-2.6-1.21s-1.92.4-2.6,1.21Z"/>
  </g>
</svg>